<svg xmlns="http://www.w3.org/2000/svg" viewBox="0 0 1862 400"><style>.a{fill:#44a4e0}.b{fill:none;stroke:#fff;stroke-width:25;stroke-linecap:round;stroke-linejoin:round;stroke-miterlimit:10}</style><g><path d="M238 400H50c-27.5 0-50-22.5-50-50V50C0 22.5 22.5 0 50 0h188c27.5 0 50 22.5 50 50v300c0 27.5-22.5 50-50 50z" class="a"/><path d="M147.4 367.4l-60-147.8c-5.1-12.6-5.1-26.7 0-39.3l60-147.8c8-19.7 27.1-32.6 48.4-32.6h92c21.2 0 40.4 12.9 48.4 32.6l60 147.8c5.1 12.6 5.1 26.7 0 39.3l-60 147.8c-8 19.7-27.1 32.6-48.4 32.6h-92c-21.3 0-40.4-12.9-48.4-32.6z" class="a"/></g><g><g><path fill="#fff" d="M172.3 130.6h-81v50.3H159c6.3 0 11 1.4 14 4.1 3.1 2.7 4.6 6.4 4.6 10.9 0 4.6-1.6 8.2-4.7 10.9-3.1 2.7-7.8 4-14 4H91.3v64.8c0 8.2-1.9 14.3-5.7 18.3-3.8 4-8.7 6-14.7 6-6.1 0-11-2-14.9-6-3.8-4-5.7-10.1-5.7-18.3V124.3c0-5.7.9-10.4 2.6-14 1.8-3.6 4.5-6.3 8.2-7.9 3.7-1.7 8.5-2.5 14.3-2.5h96.9c6.5 0 11.4 1.4 14.6 4.2 3.2 2.8 4.8 6.5 4.8 11.1 0 4.7-1.6 8.4-4.8 11.2-3.2 2.7-8.1 4.2-14.6 4.2z"/></g><g><path d="M287.9 75c-25.4 0-45.9 17.4-45.9 38.8 0-21.4-20.5-38.8-45.9-38.8" class="b"/><g><path d="M242 287.9c0 21.4 20.5 38.8 45.9 38.8" class="b"/><path d="M196.1 326.7c25.4 0 45.9-17.4 45.9-38.8" class="b"/></g><path d="M241.5 109v175" class="b"/></g><g><path d="M602.6 128.4h-79.2v60.1h73v28h-73v83.7h-35.2v-200h114.4v28.2z" class="a"/><path d="M694.9 303.6c-23.4 0-42-6.7-55.9-20-13.9-13.3-20.9-31-20.9-53.1 0-24 7.3-42.7 21.8-56.2s34.1-20.2 58.7-20.2c23.6 0 42.1 6.6 55.3 19.7 13.2 13.1 19.8 31.3 19.8 54.6 0 22.8-7.1 41-21.4 54.8-14.2 13.6-33.4 20.4-57.4 20.4zm1.6-123.7c-13.4 0-24 4.4-31.8 13.3-7.8 8.8-11.7 21-11.7 36.6 0 15 3.9 26.8 11.8 35.4 7.9 8.6 18.4 12.9 31.6 12.9 13.5 0 23.9-4.2 31.1-12.7 7.2-8.5 10.9-20.5 10.9-36.1 0-15.7-3.6-27.9-10.9-36.4-7.1-8.7-17.5-13-31-13z" class="a"/><path d="M889.8 188.2c-4.1-3.1-10.1-4.6-17.9-4.6-10.1 0-18.6 4.3-25.4 13-6.8 8.7-10.2 20.4-10.2 35.3v68.4H802V157.4h34.3v29.4h.6c3.3-10 8.5-17.9 15.4-23.5 6.9-5.6 14.7-8.4 23.3-8.4 6.2 0 10.9.9 14.2 2.7v30.6z" class="a"/><path d="M1135.3 300.3H1101v-77.9c0-15-2.2-25.8-6.7-32.5-4.5-6.7-12-10-22.7-10-9 0-16.6 4.2-22.8 12.7-6.3 8.5-9.4 18.6-9.4 30.4v77.3H1005v-80.5c0-26.6-10-39.9-29.9-39.9-9.3 0-16.9 4-22.8 12-6 8-8.9 18.4-8.9 31.1v77.3H909V157.4h34.3V180h.6c10.9-17.3 26.8-26 47.7-26 10.4 0 19.6 2.7 27.4 8.2s13.2 12.6 16 21.4c11.2-19.7 28-29.6 50.2-29.6 33.3 0 50 19.4 50 58.2v88.1z" class="a"/><path d="M1378.5 128.4h-79.2v60.1h73v28h-73v83.7h-35.2v-200h114.4v28.2z" class="a"/><path d="M1421.1 127.4c-5.6 0-10.4-1.7-14.4-5.2-4-3.4-6-7.8-6-13.1s2-9.7 6-13.3c4-3.5 8.8-5.3 14.4-5.3 5.8 0 10.7 1.8 14.8 5.3 4 3.5 6.1 8 6.1 13.3 0 5-2 9.3-6.1 12.9-4 3.6-9 5.4-14.8 5.4zm17 172.9h-34.3V157.4h34.3v142.9z" class="a"/><path d="M1509.4 300.3H1475V88.8h34.4v211.5z" class="a"/><path d="M1580.3 300.3h-34.4V88.8h34.4v211.5z" class="a"/><path d="M1746.8 237.6h-103.2c.4 13.2 4.7 23.4 12.9 30.6 8.2 7.2 19.5 10.7 33.9 10.7 16.2 0 31-4.6 44.5-13.7v26.1c-13.8 8.2-32 12.3-54.7 12.3-22.3 0-39.7-6.5-52.4-19.5-12.7-13-19-31.2-19-54.8 0-22.2 7-40.3 20.9-54.4 13.9-14 31.3-21 51.9-21 20.7 0 36.7 6.3 48 18.8 11.3 12.6 17 30 17 52.3v12.6zm-33.1-22.8c-.1-11.6-3-20.7-8.7-27.1-5.7-6.5-13.6-9.7-23.6-9.7-9.9 0-18.2 3.4-25 10.2-6.8 6.8-11.1 15.7-12.6 26.7h69.9z" class="a"/><path d="M1862 188.2c-4.1-3.1-10.1-4.6-17.9-4.6-10.1 0-18.6 4.3-25.4 13-6.8 8.7-10.2 20.4-10.2 35.3v68.4h-34.3V157.4h34.3v29.4h.6c3.3-10 8.5-17.9 15.4-23.5 6.9-5.6 14.7-8.4 23.3-8.4 6.2 0 10.9.9 14.2 2.7v30.6z" class="a"/></g></g></svg>