<svg id="Dark" xmlns="http://www.w3.org/2000/svg" viewBox="0 0 641.6 148"><defs><style>.cls-1{fill:#fff;}</style></defs><path class="cls-1" d="M249.78,293.75H221V317h26.56v10.84H221v32.33h-12.8V282.87h41.62Z" transform="translate(-30.56 -245.97)"/><path class="cls-1" d="M298.65,360.15h-12.1v-8.62h-.21q-5.7,9.92-16.73,9.92-8.12,0-12.71-4.42t-4.6-11.7q0-15.63,18-18.21l16.34-2.32q0-11.81-11.18-11.8a26.51,26.51,0,0,0-17.74,6.79V308.85a38.6,38.6,0,0,1,20.11-5.18q20.85,0,20.86,20.59ZM286.6,333,275,334.66q-5.37.7-8.09,2.61T264.24,344a7.36,7.36,0,0,0,2.5,5.74,9.66,9.66,0,0,0,6.69,2.23,12.36,12.36,0,0,0,9.44-4,14.27,14.27,0,0,0,3.73-10.11Z" transform="translate(-30.56 -245.97)"/><path class="cls-1" d="M361.33,360.15H345.52l-21.4-26.51h-.22v26.51H311.38v-81.7H323.9v51.79h.22L344.34,305h15l-22.75,26.62Z" transform="translate(-30.56 -245.97)"/><path class="cls-1" d="M411.1,336H373.57c.15,5.1,1.71,9,4.71,11.8s7.1,4.15,12.34,4.15a27.18,27.18,0,0,0,16.18-5.28v10.08q-7.53,4.74-19.89,4.74-12.15,0-19.06-7.52t-6.91-21.15q0-12.88,7.61-21a24.87,24.87,0,0,1,18.89-8.11q11.3,0,17.48,7.28t6.18,20.21Zm-12-8.84q-.06-6.75-3.17-10.49a10.62,10.62,0,0,0-8.61-3.74,12.1,12.1,0,0,0-9.11,3.93,18.08,18.08,0,0,0-4.6,10.3Z" transform="translate(-30.56 -245.97)"/><path class="cls-1" d="M496.27,293.75H467.45V317H494v10.84H467.45v32.33H454.66V282.87h41.61Z" transform="translate(-30.56 -245.97)"/><path class="cls-1" d="M511.77,293.38a7.49,7.49,0,0,1-5.24-2,6.54,6.54,0,0,1-2.18-5.06,6.7,6.7,0,0,1,2.18-5.12,7.36,7.36,0,0,1,5.24-2.05,7.61,7.61,0,0,1,5.38,2.05,6.68,6.68,0,0,1,2.2,5.12,6.58,6.58,0,0,1-2.2,5A7.55,7.55,0,0,1,511.77,293.38ZM518,360.15H505.48V305H518Z" transform="translate(-30.56 -245.97)"/><path class="cls-1" d="M543.88,360.15H531.35v-81.7h12.53Z" transform="translate(-30.56 -245.97)"/><path class="cls-1" d="M569.66,360.15H557.13v-81.7h12.53Z" transform="translate(-30.56 -245.97)"/><path class="cls-1" d="M630.25,336H592.72q.21,7.65,4.7,11.8t12.34,4.15a27.16,27.16,0,0,0,16.18-5.28v10.08q-7.53,4.74-19.89,4.74-12.15,0-19.06-7.52t-6.91-21.15q0-12.88,7.61-21a24.88,24.88,0,0,1,18.9-8.11q11.28,0,17.47,7.28t6.19,20.21Zm-12-8.84q0-6.75-3.17-10.49a10.61,10.61,0,0,0-8.6-3.74,12.1,12.1,0,0,0-9.12,3.93,18,18,0,0,0-4.59,10.3Z" transform="translate(-30.56 -245.97)"/><path class="cls-1" d="M672.16,316.88q-2.25-1.78-6.5-1.78-5.55,0-9.25,5t-3.71,13.64v26.4H640.22V305H652.7v11.37h.21a19.2,19.2,0,0,1,5.62-9.08A12.65,12.65,0,0,1,667,304a10.5,10.5,0,0,1,5.16,1Z" transform="translate(-30.56 -245.97)"/><path id="Layer_1" data-name="Layer 1" class="cls-1" d="M49.06,246a18.55,18.55,0,0,0-18.5,18.49v111A18.55,18.55,0,0,0,49.06,394h88a19.3,19.3,0,0,0,17.9-12.05l22.2-54.68a19.35,19.35,0,0,0,0-14.54h0L154.94,258A19.34,19.34,0,0,0,137,246M93.72,323a7.43,7.43,0,0,1-5,1.5l-28,.09v26.45a7.28,7.28,0,0,1-1.55,5.08A5.42,5.42,0,0,1,55,357.81a5.26,5.26,0,0,1-4.13-1.7,7.35,7.35,0,0,1-1.53-5.05v-2.38h0V292.25a12.41,12.41,0,0,1,1-5.23,6,6,0,0,1,3-2.95,12.47,12.47,0,0,1,5.18-.93h35q3.56,0,5.28,1.58a5.32,5.32,0,0,1,1.73,4.12A5.39,5.39,0,0,1,98.75,293Q97,294.6,93.47,294.6l-32.79,0v18.87l28-.15a7.35,7.35,0,0,1,5.08,1.52A5.28,5.28,0,0,1,95.42,319a5.16,5.16,0,0,1-1.7,4.06ZM125,352.5c0,8.39,10.36,9.73,13,9.73,4.44.37,6.29,8.13,0,9.24-11.1.74-17.76-7.4-17.76-7.4h0s-6.66,8.14-17.76,7.4c-6.29-1.11-4.44-8.87,0-9.24,2.59,0,13-1.34,13-9.73V288.1c0-8.39-10.36-9.73-13-9.73-4.44-.37-6.29-8.13,0-9.24,11.1-.74,17.76,7.4,17.76,7.4h0s6.66-8.14,17.76-7.4c6.29,1.11,4.44,8.87,0,9.24-2.59,0-13,1.34-13,9.73,0,.2,0,.38,0,.56v63.28c0,.18,0,.36,0,.56Z" transform="translate(-30.56 -245.97)"/></svg>