<svg xmlns="http://www.w3.org/2000/svg" viewBox="0 0 512.297 512.297"><g fill="#2196f3"><path d="M202.767 458.472c-41.237 0-74.667-33.429-74.667-74.667s33.429-74.667 74.667-74.667h42.667c5.891 0 10.667 4.776 10.667 10.667s-4.776 10.667-10.667 10.667h-42.667c-29.455 0-53.333 23.878-53.333 53.333s23.878 53.333 53.333 53.333c5.891 0 10.667 4.776 10.667 10.667s-4.776 10.667-10.667 10.667zM288.1 458.472h-42.667c-5.891 0-10.667-4.776-10.667-10.667s4.776-10.667 10.667-10.667H288.1c29.455 0 53.333-23.878 53.333-53.333s-23.878-53.333-53.333-53.333c-5.891 0-10.667-4.776-10.667-10.667s4.776-10.667 10.667-10.667c41.237 0 74.667 33.429 74.667 74.667s-33.429 74.667-74.667 74.667z"/><path d="M213.434 362.472a10.667 10.667 0 01-7.552-18.219l24.469-24.448-24.469-24.448c-4.092-4.237-3.975-10.99.262-15.083 4.134-3.992 10.687-3.992 14.82 0l32 32c4.164 4.165 4.164 10.917 0 15.083l-32 32a10.668 10.668 0 01-7.53 3.115z"/></g><path d="M402.148 149.608C384.338 63.056 299.735 7.33 213.183 25.14 139.07 40.391 85.774 105.474 85.434 181.138c0 3.605.149 7.296.469 11.2C33.178 197.919-5.04 245.185.541 297.91c5.173 48.87 46.416 85.943 95.559 85.895h10.667c.067-44.935 31.294-83.812 75.157-93.568a31.507 31.507 0 018.896-25.045c12.662-12.085 32.586-12.085 45.248 0l30.848 30.848a31.749 31.749 0 0121.184-8.235c53.019 0 96 42.981 96 96h10.667c64.73.177 117.348-52.154 117.525-116.885.17-62.112-48.144-113.57-110.144-117.312z" fill="#bbdefb"/><path d="M277.434 490.472a10.663 10.663 0 01-7.552-3.115l-32-32c-4.164-4.165-4.164-10.917 0-15.083l32-32c4.237-4.093 10.99-3.975 15.083.262a10.666 10.666 0 010 14.821l-24.448 24.448 24.448 24.448a10.668 10.668 0 01-7.531 18.219z" fill="#2196f3"/><path d="M394.767 383.805c-5.891 0-10.667-4.776-10.667-10.667s4.776-10.667 10.667-10.667c53.019 0 96-42.981 96-96s-42.981-96-96-96a12.35 12.35 0 01-12.224-9.003c-9.906-75.857-79.431-129.32-155.288-119.414s-129.32 79.431-119.414 155.288c.165 1.264.348 2.525.547 3.784a10.665 10.665 0 01-2.496 8.533 12.523 12.523 0 01-10.475 3.477c-41.237.189-74.514 33.771-74.325 75.008S54.863 362.66 96.1 362.472c5.891 0 10.667 4.776 10.667 10.667s-4.776 10.667-10.667 10.667C43.081 383.857.059 340.918.007 287.899c-.047-49.143 37.025-90.387 85.895-95.559-.32-3.904-.469-7.595-.469-11.2.397-88.365 72.352-159.677 160.717-159.28 75.665.34 140.747 53.637 155.998 127.749 64.613 3.9 113.831 59.44 109.931 124.054-3.741 61.997-55.2 110.312-117.312 110.142z"/><path d="M202.767 458.472c-41.237 0-74.667-33.429-74.667-74.667s33.429-74.667 74.667-74.667h42.667c5.891 0 10.667 4.776 10.667 10.667s-4.776 10.667-10.667 10.667h-42.667c-29.455 0-53.333 23.878-53.333 53.333s23.878 53.333 53.333 53.333c5.891 0 10.667 4.776 10.667 10.667s-4.776 10.667-10.667 10.667zM288.1 458.472h-42.667c-5.891 0-10.667-4.776-10.667-10.667s4.776-10.667 10.667-10.667H288.1c29.455 0 53.333-23.878 53.333-53.333s-23.878-53.333-53.333-53.333c-5.891 0-10.667-4.776-10.667-10.667s4.776-10.667 10.667-10.667c41.237 0 74.667 33.429 74.667 74.667s-33.429 74.667-74.667 74.667z"/><path d="M213.434 362.472a10.667 10.667 0 01-7.552-18.219l24.469-24.448-24.469-24.448c-4.092-4.237-3.975-10.99.262-15.083 4.134-3.992 10.687-3.992 14.82 0l32 32c4.164 4.165 4.164 10.917 0 15.083l-32 32a10.668 10.668 0 01-7.53 3.115zM277.434 490.472a10.663 10.663 0 01-7.552-3.115l-32-32c-4.164-4.165-4.164-10.917 0-15.083l32-32c4.237-4.093 10.99-3.975 15.083.262a10.666 10.666 0 010 14.821l-24.448 24.448 24.448 24.448a10.668 10.668 0 01-7.531 18.219z"/></svg>