<?xml version="1.0" encoding="utf-8"?>
<!-- Generator: Adobe Illustrator 19.0.0, SVG Export Plug-In . SVG Version: 6.00 Build 0)  -->
<svg version="1.1" xmlns="http://www.w3.org/2000/svg" xmlns:xlink="http://www.w3.org/1999/xlink" x="0px" y="0px"
	 viewBox="0 0 1862 400" style="enable-background:new 0 0 1862 400;" xml:space="preserve">
<style type="text/css">
	.st0{fill:#44A4E0;}
	.st1{fill:#FFFFFF;}
	.st2{fill:none;stroke:#FFFFFF;stroke-width:25;stroke-linecap:round;stroke-linejoin:round;stroke-miterlimit:10;}
</style>
<g id="Background">
	<path id="XMLID_4_" class="st0" d="M238,400H50c-27.5,0-50-22.5-50-50V50C0,22.5,22.5,0,50,0h188c27.5,0,50,22.5,50,50v300
		C288,377.5,265.5,400,238,400z"/>
	<path id="XMLID_5_" class="st0" d="M147.4,367.4l-60-147.8c-5.1-12.6-5.1-26.7,0-39.3l60-147.8c8-19.7,27.1-32.6,48.4-32.6h92
		c21.2,0,40.4,12.9,48.4,32.6l60,147.8c5.1,12.6,5.1,26.7,0,39.3l-60,147.8c-8,19.7-27.1,32.6-48.4,32.6h-92
		C174.5,400,155.4,387.1,147.4,367.4z"/>
</g>
<g id="Layer_2">
	<g id="XMLID_2_">
		<path id="XMLID_23_" class="st1" d="M172.3,130.6h-81v50.3H159c6.3,0,11,1.4,14,4.1c3.1,2.7,4.6,6.4,4.6,10.9
			c0,4.6-1.6,8.2-4.7,10.9c-3.1,2.7-7.8,4-14,4H91.3v64.8c0,8.2-1.9,14.3-5.7,18.3c-3.8,4-8.7,6-14.7,6c-6.1,0-11-2-14.9-6
			c-3.8-4-5.7-10.1-5.7-18.3V124.3c0-5.7,0.9-10.4,2.6-14c1.8-3.6,4.5-6.3,8.2-7.9c3.7-1.7,8.5-2.5,14.3-2.5h96.9
			c6.5,0,11.4,1.4,14.6,4.2c3.2,2.8,4.8,6.5,4.8,11.1c0,4.7-1.6,8.4-4.8,11.2C183.7,129.1,178.8,130.6,172.3,130.6z"/>
	</g>
	<g id="XMLID_28_">
		<path id="XMLID_32_" class="st2" d="M287.9,75c-25.4,0-45.9,17.4-45.9,38.8c0-21.4-20.5-38.8-45.9-38.8"/>
		<g id="XMLID_25_">
			<path id="XMLID_27_" class="st2" d="M242,287.9c0,21.4,20.5,38.8,45.9,38.8"/>
			<path id="XMLID_26_" class="st2" d="M196.1,326.7c25.4,0,45.9-17.4,45.9-38.8"/>
		</g>
		<line id="XMLID_24_" class="st2" x1="241.5" y1="109" x2="241.5" y2="284"/>
	</g>
	<g id="XMLID_109_">
		<path id="XMLID_110_" class="st0" d="M602.6,128.4h-79.2v60.1h73v28h-73v83.7h-35.2V100.2h114.4V128.4z"/>
		<path id="XMLID_112_" class="st0" d="M694.9,303.6c-23.4,0-42-6.7-55.9-20c-13.9-13.3-20.9-31-20.9-53.1c0-24,7.3-42.7,21.8-56.2
			c14.5-13.5,34.1-20.2,58.7-20.2c23.6,0,42.1,6.6,55.3,19.7c13.2,13.1,19.8,31.3,19.8,54.6c0,22.8-7.1,41-21.4,54.8
			C738.1,296.8,718.9,303.6,694.9,303.6z M696.5,179.9c-13.4,0-24,4.4-31.8,13.3c-7.8,8.8-11.7,21-11.7,36.6
			c0,15,3.9,26.8,11.8,35.4c7.9,8.6,18.4,12.9,31.6,12.9c13.5,0,23.9-4.2,31.1-12.7c7.2-8.5,10.9-20.5,10.9-36.1
			c0-15.7-3.6-27.9-10.9-36.4C720.4,184.2,710,179.9,696.5,179.9z"/>
		<path id="XMLID_115_" class="st0" d="M889.8,188.2c-4.1-3.1-10.1-4.6-17.9-4.6c-10.1,0-18.6,4.3-25.4,13
			c-6.8,8.7-10.2,20.4-10.2,35.3v68.4H802V157.4h34.3v29.4h0.6c3.3-10,8.5-17.9,15.4-23.5c6.9-5.6,14.7-8.4,23.3-8.4
			c6.2,0,10.9,0.9,14.2,2.7V188.2z"/>
		<path id="XMLID_117_" class="st0" d="M1135.3,300.3H1101v-77.9c0-15-2.2-25.8-6.7-32.5c-4.5-6.7-12-10-22.7-10
			c-9,0-16.6,4.2-22.8,12.7c-6.3,8.5-9.4,18.6-9.4,30.4v77.3h-34.4v-80.5c0-26.6-10-39.9-29.9-39.9c-9.3,0-16.9,4-22.8,12
			c-6,8-8.9,18.4-8.9,31.1v77.3H909V157.4h34.3V180h0.6c10.9-17.3,26.8-26,47.7-26c10.4,0,19.6,2.7,27.4,8.2s13.2,12.6,16,21.4
			c11.2-19.7,28-29.6,50.2-29.6c33.3,0,50,19.4,50,58.2V300.3z"/>
		<path id="XMLID_119_" class="st0" d="M1378.5,128.4h-79.2v60.1h73v28h-73v83.7h-35.2V100.2h114.4V128.4z"/>
		<path id="XMLID_121_" class="st0" d="M1421.1,127.4c-5.6,0-10.4-1.7-14.4-5.2c-4-3.4-6-7.8-6-13.1c0-5.3,2-9.7,6-13.3
			c4-3.5,8.8-5.3,14.4-5.3c5.8,0,10.7,1.8,14.8,5.3c4,3.5,6.1,8,6.1,13.3c0,5-2,9.3-6.1,12.9
			C1431.9,125.6,1426.9,127.4,1421.1,127.4z M1438.1,300.3h-34.3V157.4h34.3V300.3z"/>
		<path id="XMLID_124_" class="st0" d="M1509.4,300.3H1475V88.8h34.4V300.3z"/>
		<path id="XMLID_126_" class="st0" d="M1580.3,300.3h-34.4V88.8h34.4V300.3z"/>
		<path id="XMLID_128_" class="st0" d="M1746.8,237.6h-103.2c0.4,13.2,4.7,23.4,12.9,30.6c8.2,7.2,19.5,10.7,33.9,10.7
			c16.2,0,31-4.6,44.5-13.7v26.1c-13.8,8.2-32,12.3-54.7,12.3c-22.3,0-39.7-6.5-52.4-19.5c-12.7-13-19-31.2-19-54.8
			c0-22.2,7-40.3,20.9-54.4c13.9-14,31.3-21,51.9-21c20.7,0,36.7,6.3,48,18.8c11.3,12.6,17,30,17,52.3V237.6z M1713.7,214.8
			c-0.1-11.6-3-20.7-8.7-27.1c-5.7-6.5-13.6-9.7-23.6-9.7c-9.9,0-18.2,3.4-25,10.2c-6.8,6.8-11.1,15.7-12.6,26.7H1713.7z"/>
		<path id="XMLID_131_" class="st0" d="M1862,188.2c-4.1-3.1-10.1-4.6-17.9-4.6c-10.1,0-18.6,4.3-25.4,13
			c-6.8,8.7-10.2,20.4-10.2,35.3v68.4h-34.3V157.4h34.3v29.4h0.6c3.3-10,8.5-17.9,15.4-23.5c6.9-5.6,14.7-8.4,23.3-8.4
			c6.2,0,10.9,0.9,14.2,2.7V188.2z"/>
	</g>
</g>
<g id="Guides">
</g>
</svg>
